PathFileType	4	(X/Y/Z)	D:\MotionData\NordSprintingStudy\Test 2\Edited\JustTheBoards000001.trc
DataRate	CameraRate	NumFrames	NumMarkers	Units	OrigDataRate	OrigDataStartFrame	OrigNumFrames
200.00	200.00	       36	5	mm	200.00	157	       624
Frame#	Time	M1			M2			M3			M4			M5			
		X1	Y1	Z1	X2	Y2	Z2	X3	Y3	Z3	X4	Y4	Z4	X5	Y5	Z5	

157	0.780	917.00226	1916.80261	47.61650	901.02411	2236.87988	59.05539	1100.59631	2247.54932	58.16682	1500.25818	2267.97461	58.52949	1515.91467	1946.80090	47.58642	
158	0.785	916.99579	1916.81006	47.63142	900.98572	2236.83594	59.10181	1100.67505	2247.55151	58.08411	1500.16150	2267.94946	58.63638	1515.89490	1946.79846	47.61781	
159	0.790	917.03528	1916.80444	47.56132	900.92261	2236.84082	59.17044	1100.64197	2247.50757	58.10560	1500.14636	2267.91626	58.63899	1515.88843	1946.78699	47.63554	
160	0.795	917.01965	1916.81250	47.61488	900.98419	2236.89111	59.10833	1100.69653	2247.53540	58.06469	1500.18896	2267.91260	58.61312	1515.91919	1946.82788	47.64083	
161	0.800	917.03290	1916.82068	47.56770	901.00885	2236.86768	59.14396	1100.69153	2247.55347	58.10579	1500.19299	2267.93311	58.65741	1515.90259	1946.81750	47.60567	
162	0.805	917.05798	1916.82947	47.56595	901.00488	2236.87866	59.06405	1100.67847	2247.55396	58.08760	1500.21265	2267.96680	58.58603	1515.91687	1946.80762	47.59707	
163	0.810	917.04828	1916.82544	47.57117	901.01904	2236.83447	59.10934	1100.72668	2247.56909	58.06760	1500.26440	2267.96118	58.54660	1515.92297	1946.83020	47.61121	
164	0.815	917.11981	1916.83105	47.47449	901.10260	2236.90771	58.96006	1100.70715	2247.54639	58.06067	1500.32092	2267.98682	58.47149	1515.98889	1946.84363	47.51106	
165	0.820	917.07245	1916.83179	47.52840	901.07953	2236.85425	58.99876	1100.82104	2247.60205	57.94817	1500.33484	2268.00439	58.45189	1515.97375	1946.84692	47.52350	
166	0.825	917.14618	1916.84839	47.41936	901.10260	2236.88428	58.90265	1100.78442	2247.58716	57.96307	1500.40112	2268.02881	58.34958	1516.06653	1946.85535	47.43961	
167	0.830	917.16412	1916.84705	47.45072	901.24567	2236.78809	58.88439	1100.86829	2247.60400	57.87313	1500.41284	2268.00464	58.33718	1516.09094	1946.86206	47.44957	
168	0.835	917.25525	1916.89124	47.29867	901.13165	2236.88574	58.85518	1100.87952	2247.61108	57.83274	1500.40332	2268.02344	58.36521	1516.15295	1946.88147	47.32025	
169	0.840	917.22662	1916.87720	47.33852	901.30054	2236.80127	58.79087	1100.92297	2247.60278	57.75298	1500.49329	2268.04907	58.28040	1516.16382	1946.88965	47.33465	
170	0.845	917.27649	1916.92004	47.26286	901.23029	2236.92773	58.77338	1100.97168	2247.62769	57.71959	1500.36304	2268.00977	58.38589	1516.17432	1946.88562	47.27314	
171	0.850	917.28308	1916.89844	47.23104	901.22900	2236.93994	58.78074	1100.89404	2247.61621	57.77828	1500.54517	2268.07935	58.18818	1516.18518	1946.90552	47.30992	
172	0.855	917.29797	1916.89819	47.21589	901.13287	2236.92017	58.89235	1100.89819	2247.63257	57.77114	1500.47131	2268.04736	58.28467	1516.12793	1946.91663	47.33142	
173	0.860	917.23804	1916.88184	47.28740	901.22406	2236.92847	58.75602	1100.85596	2247.63330	57.81030	1500.51355	2268.07031	58.24744	1516.19421	1946.92029	47.29895	
174	0.865	917.17999	1916.88977	47.37513	901.20447	2236.94531	58.81257	1100.93616	2247.64136	57.76176	1500.47839	2268.06958	58.30463	1516.13293	1946.88953	47.35629	
175	0.870	917.25043	1916.88196	47.28900	901.21155	2236.90698	58.80972	1100.89233	2247.60400	57.83468	1500.37366	2268.01709	58.39319	1516.12109	1946.88232	47.32161	
176	0.875	917.18781	1916.85742	47.38697	901.07666	2236.86963	58.95047	1100.90479	2247.61353	57.78827	1500.41162	2268.02637	58.33346	1516.10815	1946.88147	47.38825	
177	0.880	917.17664	1916.85596	47.39137	901.18842	2236.91675	58.86087	1100.81775	2247.59497	57.88297	1500.33691	2267.98877	58.45239	1516.08167	1946.85620	47.42410	
178	0.885	917.12408	1916.84656	47.46916	901.07965	2236.88403	58.95427	1100.84229	2247.58228	57.88304	1500.33777	2268.01465	58.45638	1516.04883	1946.85046	47.45925	
179	0.890	917.15125	1916.81409	47.46165	901.07019	2236.89038	59.04904	1100.78857	2247.55981	57.99712	1500.30896	2267.97925	58.51726	1515.96753	1946.80615	47.55182	
180	0.895	917.06775	1916.81995	47.53228	901.10522	2236.86450	59.01630	1100.69250	2247.54517	58.08336	1500.30518	2267.97241	58.49192	1515.96484	1946.81018	47.55472	
181	0.900	917.00519	1916.81201	47.62203	901.06024	2236.86572	59.03827	1100.75830	2247.53687	58.01802	1500.26563	2267.97485	58.57612	1515.95789	1946.80237	47.57767	
182	0.905	917.04138	1916.80701	47.56140	901.08582	2236.85840	59.00830	1100.70386	2247.53955	58.09384	1500.20337	2267.94116	58.61454	1515.95862	1946.81299	47.55043	
183	0.910	917.01550	1916.80115	47.61179	901.00342	2236.84009	59.11139	1100.70068	2247.53296	58.05983	1500.19092	2267.92383	58.62626	1515.94189	1946.80981	47.61902	
184	0.915	917.03448	1916.81030	47.59113	900.95245	2236.81738	59.19288	1100.67310	2247.52637	58.12640	1500.20532	2267.92480	58.65596	1515.90088	1946.79492	47.63499	
185	0.920	917.00476	1916.81262	47.62302	901.01154	2236.85327	59.12448	1100.65527	2247.49951	58.12709	1500.25427	2267.97266	58.58530	1515.89148	1946.79675	47.62967	
186	0.925	917.00208	1916.80151	47.60118	901.02472	2236.85156	59.03619	1100.65686	2247.52856	58.11342	1500.13599	2267.90039	58.68679	1515.92993	1946.80542	47.59180	
187	0.930	916.99304	1916.79163	47.62149	900.99890	2236.85645	59.04620	1100.70520	2247.54810	58.05321	1500.22107	2267.95679	58.58912	1515.90198	1946.80151	47.59505	
188	0.935	917.04376	1916.82227	47.58147	901.13129	2236.74683	58.99472	1100.65796	2247.56055	58.07724	1500.20691	2267.97437	58.55456	1515.91833	1946.81213	47.57523	
189	0.940	917.00983	1916.80273	47.58872	901.07220	2236.89648	58.97974	1100.74158	2247.56250	58.01306	1500.17859	2267.94458	58.59552	1515.94556	1946.83667	47.53838	
190	0.945	917.10327	1916.85291	47.46297	901.04858	2236.86084	58.97889	1100.72900	2247.55615	57.99702	1500.17493	2267.94824	58.60570	1515.99817	1946.83081	47.49584	
191	0.950	917.08063	1916.83887	47.45959	901.05817	2236.90356	58.98089	1100.69458	2247.56470	58.01469	1500.31335	2267.99658	58.43045	1515.97900	1946.84485	47.47673	
192	0.955	917.08014	1916.83850	47.47671	901.07367	2236.89941	58.94897	1100.80554	2247.60620	57.91504	1500.35706	2268.00952	58.40775	1515.98193	1946.85144	47.52016	
